<svg width="32" height="32" viewBox="0 0 32 32" fill="none" xmlns="http://www.w3.org/2000/svg">
  <!-- Background circle -->
  <circle cx="16" cy="16" r="16" fill="#22c55e"/>
  
  <!-- Letter S -->
  <path d="M12 10C12 8.89543 12.8954 8 14 8H18C19.1046 8 20 8.89543 20 10V11C20 11.5523 19.5523 12 19 12C18.4477 12 18 11.5523 18 11V10H14V12H18C19.1046 12 20 12.8954 20 14V16C20 17.1046 19.1046 18 18 18H14C12.8954 18 12 17.1046 12 16V15C12 14.4477 12.4477 14 13 14C13.5523 14 14 14.4477 14 15V16H18V14H14C12.8954 14 12 13.1046 12 12V10Z" fill="white"/>
  
  <!-- Zero/Circle below -->
  <circle cx="16" cy="23" r="4" fill="white"/>
  <circle cx="16" cy="23" r="2.5" fill="#22c55e"/>
</svg>
